<svg width="16" height="17" viewBox="0 0 16 17" fill="none" xmlns="http://www.w3.org/2000/svg">
<path d="M8.31555 16.82C6.51555 16.82 5.03555 16.5267 3.87555 15.94C2.72888 15.3533 1.86221 14.5667 1.27555 13.58C0.702214 12.58 0.362214 11.4867 0.255547 10.3C0.242214 10.1133 0.22888 9.86667 0.215547 9.56C0.215547 9.25333 0.215547 8.92667 0.215547 8.58C0.215547 8.23333 0.215547 7.90667 0.215547 7.6C0.22888 7.29333 0.242214 7.05333 0.255547 6.88C0.322214 6.09333 0.522214 5.31333 0.855547 4.54C1.18888 3.76667 1.66888 3.06667 2.29555 2.44C2.92221 1.8 3.70221 1.28667 4.63555 0.899999C5.56888 0.513333 6.66221 0.32 7.91555 0.32C9.43555 0.32 10.6955 0.493333 11.6955 0.839999C12.6955 1.18667 13.4889 1.66667 14.0755 2.28C14.6755 2.89333 15.1155 3.59333 15.3955 4.38C15.6755 5.16667 15.8555 6 15.9355 6.88C15.9622 7.10667 15.9755 7.36667 15.9755 7.66C15.9755 7.94 15.9689 8.22667 15.9555 8.52C15.9555 8.81333 15.9489 9.08 15.9355 9.32C15.8955 9.98667 15.7022 10.5533 15.3555 11.02C15.0222 11.4867 14.6022 11.84 14.0955 12.08C13.6022 12.3067 13.1022 12.42 12.5955 12.42C12.1555 12.42 11.7555 12.3733 11.3955 12.28C11.0489 12.1867 10.7555 12.0733 10.5155 11.94C10.2755 11.7933 10.0889 11.6467 9.95555 11.5C9.86221 11.66 9.72888 11.8267 9.55555 12C9.38221 12.1733 9.12221 12.32 8.77555 12.44C8.42888 12.56 7.94221 12.62 7.31555 12.62C6.31555 12.62 5.53555 12.2467 4.97555 11.5C4.42888 10.74 4.15555 9.75333 4.15555 8.54C4.15555 7.31333 4.41555 6.32667 4.93555 5.58C5.46888 4.82 6.22888 4.44 7.21555 4.44C7.72221 4.44 8.12221 4.51333 8.41555 4.66C8.72221 4.80667 8.98221 5.02667 9.19555 5.32V5.14C9.19555 4.99333 9.24888 4.86667 9.35555 4.76C9.46221 4.65333 9.58888 4.6 9.73555 4.6H11.1755C11.3222 4.6 11.4489 4.65333 11.5555 4.76C11.6622 4.86667 11.7155 4.99333 11.7155 5.14V9C11.7155 9.32 11.7889 9.56667 11.9355 9.74C12.0822 9.91333 12.3022 10 12.5955 10C12.7955 10 12.9555 9.96 13.0755 9.88C13.2089 9.8 13.3022 9.68667 13.3555 9.54C13.4222 9.39333 13.4555 9.22 13.4555 9.02C13.4555 8.66 13.4555 8.31333 13.4555 7.98C13.4689 7.64667 13.4622 7.31333 13.4355 6.98C13.3955 5.99333 13.2022 5.18667 12.8555 4.56C12.5089 3.93333 11.9422 3.47333 11.1555 3.18C10.3689 2.88667 9.28888 2.74 7.91555 2.74C6.75555 2.74 5.81555 2.92667 5.09555 3.3C4.37555 3.67333 3.82888 4.18 3.45555 4.82C3.09555 5.46 2.86888 6.18 2.77555 6.98C2.74888 7.20667 2.72888 7.52667 2.71555 7.94C2.71555 8.35333 2.71555 8.77333 2.71555 9.2C2.72888 9.61333 2.74888 9.94667 2.77555 10.2C2.92221 11.5067 3.42221 12.5333 4.27555 13.28C5.12888 14.0267 6.47555 14.4 8.31555 14.4C9.04888 14.4 9.63555 14.3733 10.0755 14.32C10.5155 14.2667 10.8822 14.1733 11.1755 14.04C11.4822 13.92 11.7755 13.7533 12.0555 13.54C12.2022 13.4333 12.3222 13.36 12.4155 13.32C12.5089 13.2667 12.6222 13.24 12.7555 13.24H14.7155C14.8622 13.24 14.9889 13.2933 15.0955 13.4C15.2155 13.4933 15.2689 13.6267 15.2555 13.8C15.2555 13.8533 15.2422 13.9067 15.2155 13.96C15.1889 14 15.1555 14.0467 15.1155 14.1C14.7289 14.5667 14.2289 15.0067 13.6155 15.42C13.0022 15.8467 12.2555 16.1867 11.3755 16.44C10.5089 16.6933 9.48888 16.82 8.31555 16.82ZM7.91555 10.2C8.30221 10.2 8.60888 10.0867 8.83555 9.86C9.07555 9.63333 9.19555 9.19333 9.19555 8.54C9.19555 7.88667 9.07555 7.44667 8.83555 7.22C8.60888 6.98 8.30221 6.86 7.91555 6.86C7.55555 6.86 7.25555 6.98 7.01555 7.22C6.77555 7.44667 6.65555 7.88667 6.65555 8.54C6.65555 8.96667 6.70888 9.30667 6.81555 9.56C6.92221 9.8 7.06888 9.96667 7.25555 10.06C7.45555 10.1533 7.67555 10.2 7.91555 10.2Z" fill="#3596E8"/>
</svg>
