<svg width="23" height="13" viewBox="0 0 23 13" fill="none" xmlns="http://www.w3.org/2000/svg">
<path d="M6.12463 12.16C5.10063 12.16 4.19396 12.0053 3.40463 11.696C2.62596 11.3867 2.01796 10.9067 1.58063 10.256C1.14329 9.60533 0.924625 8.77867 0.924625 7.776V1.232C0.924625 1.11467 0.967292 1.01333 1.05263 0.927999C1.13796 0.842666 1.23929 0.799999 1.35663 0.799999H4.49263C4.60996 0.799999 4.71129 0.842666 4.79663 0.927999C4.88196 1.01333 4.92463 1.11467 4.92463 1.232V7.712C4.92463 8.10667 5.02063 8.41067 5.21263 8.624C5.41529 8.83733 5.71396 8.944 6.10863 8.944C6.50329 8.944 6.79663 8.83733 6.98863 8.624C7.19129 8.41067 7.29263 8.10667 7.29263 7.712V1.232C7.29263 1.11467 7.33529 1.01333 7.42063 0.927999C7.50596 0.842666 7.60729 0.799999 7.72463 0.799999H10.8606C10.978 0.799999 11.0793 0.842666 11.1646 0.927999C11.25 1.01333 11.2926 1.11467 11.2926 1.232V7.776C11.2926 8.77867 11.074 9.60533 10.6366 10.256C10.1993 10.9067 9.59129 11.3867 8.81263 11.696C8.03396 12.0053 7.13796 12.16 6.12463 12.16ZM13.2301 12C13.1128 12 13.0115 11.9573 12.9261 11.872C12.8408 11.7867 12.7981 11.6853 12.7981 11.568V4.112C12.7981 3.99467 12.8408 3.89333 12.9261 3.808C13.0115 3.72267 13.1128 3.68 13.2301 3.68H16.0301C16.1475 3.68 16.2488 3.72267 16.3341 3.808C16.4195 3.89333 16.4621 3.99467 16.4621 4.112V4.64C16.7288 4.33067 17.0968 4.06933 17.5661 3.856C18.0355 3.632 18.5528 3.52 19.1181 3.52C19.6621 3.52 20.1688 3.648 20.6381 3.904C21.1075 4.16 21.4861 4.55467 21.7741 5.088C22.0728 5.62133 22.2221 6.30933 22.2221 7.152V11.568C22.2221 11.6853 22.1795 11.7867 22.0941 11.872C22.0088 11.9573 21.9075 12 21.7901 12H18.7341C18.6168 12 18.5155 11.9573 18.4301 11.872C18.3448 11.7867 18.3021 11.6853 18.3021 11.568V7.264C18.3021 6.976 18.2328 6.75733 18.0941 6.608C17.9555 6.45867 17.7581 6.384 17.5021 6.384C17.2461 6.384 17.0488 6.45867 16.9101 6.608C16.7715 6.75733 16.7021 6.976 16.7021 7.264V11.568C16.7021 11.6853 16.6595 11.7867 16.5741 11.872C16.4888 11.9573 16.3875 12 16.2701 12H13.2301Z" fill="#3596E8"/>
</svg>
